<?xml version="1.0" standalone="no"?><!DOCTYPE svg PUBLIC "-//W3C//DTD SVG 1.1//EN" "http://www.w3.org/Graphics/SVG/1.1/DTD/svg11.dtd"><svg t="1537941878570" class="icon" style="" viewBox="0 0 1024 1024" version="1.1" xmlns="http://www.w3.org/2000/svg" p-id="2106" xmlns:xlink="http://www.w3.org/1999/xlink" width="48" height="48"><defs><style type="text/css"></style></defs><path d="M936.723238 911.36571c0 11.307533-9.168824 20.466124-20.466124 20.466124l-778.24483 0c-5.638417 0-11.031241-2.322905-14.899338-6.436596-3.868097-4.103458-5.863545-9.629311-5.525853-15.257495 3.346211-55.688323 25.521257-99.3221 67.804269-133.37773 35.344996-28.478612 79.94068-46.01808 119.286804-61.490469 48.115857-18.920932 89.836051-35.32453 102.371552-64.120366 1.964748-23.300682 1.811252-41.382503 1.627057-62.186318-0.030699-3.121084-0.051165-6.2831-0.071631-9.526981-18.839067-18.798135-38.189787-58.748009-45.199435-94.215802-6.702656-3.428076-12.852726-8.575306-18.051121-15.20633-10.19213-13.006222-16.823154-31.732725-19.698644-55.667857-2.732228-22.75833 4.082992-40.164768 13.323447-51.451836-25.050536-103.947444-17.692964-183.03878 21.908986-235.227396 33.42118-44.032866 88.577385-67.057255 163.954119-68.438719 0.122797-0.010233 0.245593-0.010233 0.378623-0.010233 49.415456 0 86.448908 13.323447 105.789395 37.749766 35.05847 6.938016 61.715597 24.774243 79.316463 53.109592 18.992563 30.566156 26.513864 72.357981 22.349007 124.208906-2.967588 37.043684-11.102872 69.789483-16.833387 89.273233 8.964162 11.2973 15.451924 28.468378 12.770861 50.786687-2.87549 23.935132-9.496282 42.661635-19.698644 55.667857-5.188162 6.610558-11.317767 11.747555-17.999956 15.185864-4.553713 23.8942-13.609972 44.933375-19.156292 56.333006-6.098905 12.545734-14.807241 27.792996-25.009603 37.974893-0.020466 3.295046-0.051165 6.508227-0.081864 9.670244-0.184195 20.742417-0.337691 38.762839 1.616824 61.971423 12.525268 28.795836 54.081733 45.199435 101.992929 64.120366 49.89641 19.698644 106.444311 42.027186 144.245242 85.98842 7.367805 8.575306 6.395664 21.48943-2.169409 28.867468-8.575306 7.367805-21.499663 6.395664-28.867468-2.179642-31.200606-36.296671-80.534198-55.770188-128.240733-74.599022-55.882751-22.062482-108.654652-42.896996-126.275985-90.26584-0.63445-1.698688-1.033539-3.479241-1.197268-5.290493-2.40477-26.677593-2.220574-47.225581-2.036379-68.970838 0.061398-6.129604 0.112564-12.463869 0.112564-19.084661 0-7.490601 4.093225-14.367219 10.652618-17.959024 7.562233-5.464455 31.568996-45.455261 35.723619-84.320431 1.043772-9.772574 8.892531-17.426905 18.685571-18.225083 2.619664-0.214894 13.20065-7.592932 17.068747-39.765679 1.985214-16.526395-6.057973-22.338774-6.139837-22.400173-8.145517-4.952802-11.757788-14.858406-8.749268-23.914666 15.717983-47.286979 33.9226-140.837632 2.466168-191.481056-12.555967-20.210297-31.968086-31.886221-59.341526-35.69292-6.293333-0.86981-11.819187-4.625344-14.960737-10.140964-9.148357-16.055674-37.493939-25.654286-75.847455-25.684986-62.104453 1.176802-106.485243 18.757203-131.914402 52.260248-16.833387 22.195511-26.196639 52.239781-27.803229 89.303932-1.524726 35.017538 3.816932 76.318176 15.871479 122.745578 2.27174 8.728802-1.442862 17.918092-9.138124 22.615067-0.051165 0.030699-8.114818 5.863545-6.129604 22.38994 3.868097 32.172747 14.449084 39.550785 17.068747 39.765679 9.803273 0.798179 17.641799 8.452509 18.685571 18.225083 4.123924 38.670741 28.928866 78.784344 36.767392 84.299965 6.579859 3.581572 10.69355 10.478655 10.69355 17.97949 0 6.54916 0.051165 12.811794 0.102331 18.869766 0.184195 21.816888 0.36839 42.426275-2.056845 69.185732-0.153496 1.811252-0.562818 3.591805-1.197268 5.290493-17.621333 47.38931-70.608128 68.223824-126.69554 90.286306-38.404682 15.103999-78.119195 30.719652-108.593254 55.268768-27.557636 22.205745-43.766806 48.709375-50.019207 82.263585l755.210207 0C927.554414 890.899586 936.723238 900.06841 936.723238 911.36571z" p-id="2107" fill="#bfbfbf"></path></svg>